<svg width="38" height="30" viewBox="0 0 38 30" fill="none" xmlns="http://www.w3.org/2000/svg">
<path d="M36.7032 5.15625C36.3566 3.09448 34.7049 1.59302 32.7881 1.12427C29.9197 0.46875 24.6111 0 18.8675 0C13.1272 0 7.73369 0.46875 4.86188 1.12427C2.94848 1.59302 1.29337 2.99927 0.94671 5.15625C0.596656 7.5 0.25 10.7812 0.25 15C0.25 19.2188 0.596656 22.5 1.03168 24.8438C1.38173 26.9055 3.03344 28.407 4.94685 28.8757C7.99198 29.5312 13.2122 30 18.9558 30C24.6994 30 29.9197 29.5312 32.9648 28.8757C34.8782 28.407 36.5299 27.0007 36.88 24.8438C37.2266 22.5 37.6616 19.1235 37.75 15C37.5733 10.7812 37.1383 7.5 36.7032 5.15625ZM14.1706 21.5625V8.4375L24.7844 15L14.1706 21.5625Z" fill="black"/>
</svg>
