<svg width="52" height="52" viewBox="0 0 52 52" fill="none" xmlns="http://www.w3.org/2000/svg">
<path id="&#226;&#128;&#156;" d="M20.4208 9.41348C16.2169 10.2583 13.262 13.5078 11.5561 19.1619C10.7032 21.9564 10.2767 24.7184 10.2767 27.448C10.2767 27.7729 10.2767 28.0654 10.2767 28.3253C10.3376 28.5203 10.3985 29.0077 10.4594 29.7876H20.4208V51.0391H0.955078V31.4448C0.955078 21.8264 2.75238 14.4176 6.34698 9.21851C9.94158 4.01937 14.6328 1.02987 20.4208 0.25V9.41348ZM51.2186 9.41348C47.8677 9.99838 45.3088 12.013 43.542 15.4575C41.8361 18.9019 40.9831 22.8662 40.9831 27.3505C40.9831 27.7404 40.9831 28.1304 40.9831 28.5203C41.044 28.9102 41.1354 29.3327 41.2573 29.7876H51.2186V51.0391H31.6615V31.4448C31.6615 23.7111 33.1846 16.8222 36.2309 10.7783C39.2772 4.66927 44.2731 1.15985 51.2186 0.25V9.41348Z" fill="black"/>
</svg>
