<svg width="30" height="30" viewBox="0 0 30 30" fill="none" xmlns="http://www.w3.org/2000/svg">
<path d="M8.52887 0C3.82571 0 0 3.92744 0 8.75244V21.2524C0 26.0762 3.82926 30 8.53363 30H20.7211C25.4243 30 29.25 26.0726 29.25 21.2476V8.74756C29.25 3.92381 25.4207 0 20.7164 0H8.52887ZM23.1562 5C23.829 5 24.375 5.56 24.375 6.25C24.375 6.94 23.829 7.5 23.1562 7.5C22.4835 7.5 21.9375 6.94 21.9375 6.25C21.9375 5.56 22.4835 5 23.1562 5ZM14.625 7.5C18.6578 7.5 21.9375 10.8638 21.9375 15C21.9375 19.1362 18.6578 22.5 14.625 22.5C10.5922 22.5 7.3125 19.1362 7.3125 15C7.3125 10.8638 10.5922 7.5 14.625 7.5ZM14.625 10C13.3321 10 12.0921 10.5268 11.1779 11.4645C10.2636 12.4021 9.75 13.6739 9.75 15C9.75 16.3261 10.2636 17.5979 11.1779 18.5355C12.0921 19.4732 13.3321 20 14.625 20C15.9179 20 17.1579 19.4732 18.0721 18.5355C18.9864 17.5979 19.5 16.3261 19.5 15C19.5 13.6739 18.9864 12.4021 18.0721 11.4645C17.1579 10.5268 15.9179 10 14.625 10Z" fill="black"/>
</svg>
