<svg width="17" height="17" viewBox="0 0 17 17" fill="none" xmlns="http://www.w3.org/2000/svg">
<path opacity="0.8" d="M9.92094 0C13.8222 0 17 3.17779 17 7.07906C17 10.9803 13.8222 14.1581 9.92094 14.1581C8.22444 14.1581 6.66643 13.5557 5.44537 12.5556L1.21868 16.7823C1.15345 16.8503 1.07532 16.9045 0.988861 16.9419C0.902405 16.9793 0.809362 16.999 0.715181 17C0.621002 17.0009 0.527576 16.9831 0.440378 16.9475C0.35318 16.9119 0.27396 16.8592 0.207361 16.7926C0.140762 16.726 0.0881214 16.6468 0.0525227 16.5596C0.016922 16.4724 -0.000923157 16.379 3.62396e-05 16.2848C0.000995636 16.1906 0.0207367 16.0976 0.0581036 16.0111C0.0954704 15.9247 0.149714 15.8466 0.217655 15.7813L4.44435 11.5546C3.44432 10.3336 2.84188 8.77556 2.84188 7.07906C2.84188 3.17779 6.01967 0 9.92094 0ZM9.92094 1.41581C6.78483 1.41581 4.2577 3.94295 4.2577 7.07906C4.2577 10.2152 6.78483 12.7423 9.92094 12.7423C13.0571 12.7423 15.5842 10.2152 15.5842 7.07906C15.5842 3.94295 13.0571 1.41581 9.92094 1.41581Z" fill="white"/>
</svg>
